<?xml version="1.0" encoding="UTF-8"?>
<!DOCTYPE svg PUBLIC "-//W3C//DTD SVG 1.1//EN" "http://www.w3.org/Graphics/SVG/1.1/DTD/svg11.dtd">
<!-- Creator: CorelDRAW 2021 (64-Bit) -->
<svg xmlns="http://www.w3.org/2000/svg" xml:space="preserve" width="84.6666mm" height="7.6198mm" version="1.1" style="shape-rendering:geometricPrecision; text-rendering:geometricPrecision; image-rendering:optimizeQuality; fill-rule:evenodd; clip-rule:evenodd"
viewBox="0 0 8466.66 761.98"
 xmlns:xlink="http://www.w3.org/1999/xlink"
 xmlns:xodm="http://www.corel.com/coreldraw/odm/2003">
 <defs>
  <style type="text/css">
   <![CDATA[
    .fil0 {fill:white;fill-rule:nonzero}
   ]]>
  </style>
 </defs>
 <g id="Camada_x0020_1">
  <metadata id="CorelCorpID_0Corel-Layer"/>
  <path class="fil0" d="M436.01 370.41c0,-24.27 2.12,-46.28 6.35,-66.04 4.24,-19.75 10.3,-38.24 18.21,-55.46 7.9,-17.21 17.64,-33.3 29.21,-48.26 11.57,-14.95 24.69,-29.49 39.37,-43.6 27.09,-26.53 58.98,-46.85 95.67,-60.96 36.69,-14.11 76.2,-21.17 118.53,-21.17 21.45,0 43.89,1.56 67.31,4.66 23.43,3.11 46.43,7.76 69.01,13.97 22.58,6.21 43.74,14.11 63.5,23.71 19.75,9.59 36.41,20.88 49.95,33.86l-44.02 66.89c-14.68,-24.83 -30.63,-45.3 -47.84,-61.38 -17.22,-16.09 -34.86,-29.07 -52.92,-38.95 -18.06,-9.88 -35.98,-16.79 -53.76,-20.74 -17.78,-3.95 -34.86,-5.93 -51.23,-5.93 -64.91,0 -117.68,19.76 -158.32,59.27 -10.73,10.72 -20.18,24.69 -28.37,41.91 -8.18,17.21 -14.95,35.98 -20.32,56.3 -5.36,20.32 -9.45,41.07 -12.27,62.23 -2.83,21.17 -4.24,41.07 -4.24,59.69l0 18.63c0,18.63 1.41,38.52 4.24,59.69 2.82,21.17 6.91,41.91 12.27,62.23 5.37,20.32 12.14,39.09 20.32,56.3 8.19,17.22 17.64,31.19 28.37,41.91 40.64,39.51 93.41,59.27 158.32,59.27 16.37,0 34.15,-3.1 53.34,-9.31 19.2,-6.21 38.67,-15.24 58.43,-27.1 19.75,-11.85 39.08,-26.67 57.99,-44.45 18.91,-17.78 36.27,-37.96 52.07,-60.53l50.8 61.8c-13.54,13.55 -28.93,26.11 -46.14,37.68 -17.22,11.57 -36.97,21.59 -59.27,30.06 -22.29,8.46 -47.27,15.24 -74.93,20.32 -27.66,5.08 -58.42,7.62 -92.29,7.62 -42.33,0 -81.84,-6.92 -118.53,-20.75 -36.69,-13.83 -68.58,-34.29 -95.67,-61.38 -14.68,-14.68 -27.8,-29.49 -39.37,-44.45 -11.57,-14.96 -21.31,-30.9 -29.21,-47.84 -7.91,-16.93 -13.97,-35.28 -18.21,-55.03 -4.23,-19.76 -6.35,-41.77 -6.35,-66.04l0 -18.63zm906.79 -287.02l77.89 0 263.32 592.67 -87.21 0c-87.95,-197.68 -158.44,-355.83 -249.77,-562.19 -86.25,193.85 -165.75,373.37 -249.77,562.19l-17.78 0 263.32 -592.67zm722.21 0c22.01,0 42.75,3.67 62.23,11.01 19.47,7.34 36.41,18.06 50.8,32.17 14.39,14.11 25.82,30.9 34.29,50.38 8.47,19.47 12.7,41.63 12.7,66.46 0,21.45 -3.53,41.07 -10.58,58.85 -7.06,17.78 -16.51,33.44 -28.37,46.99 -11.85,13.54 -25.96,24.69 -42.33,33.44 -16.37,8.75 -33.87,14.82 -52.5,18.2 9.6,3.39 18.49,8.89 26.67,16.51 8.19,7.62 15.67,18.21 22.44,31.75l104.99 226.91 -117.69 0 -95.67 -252.31c-3.39,-7.9 -8.61,-13.12 -15.67,-15.66 -7.05,-2.54 -15.66,-4.09 -25.82,-4.66l-141.39 0 0 272.63 -80.44 0 0 -592.67 296.34 0zm-35.56 303.96c20.32,0 37.82,-4.66 52.49,-13.97 14.68,-9.32 26.67,-21.03 35.98,-35.14 9.32,-14.11 16.23,-29.63 20.75,-46.57 4.51,-16.93 6.77,-33.02 6.77,-48.26 0,-13.55 -1.55,-28.64 -4.66,-45.3 -3.1,-16.65 -8.89,-32.31 -17.35,-46.99 -8.47,-14.67 -20.18,-26.95 -35.14,-36.83 -14.96,-9.87 -34.29,-14.81 -58,-14.81l-181.18 0 0 287.87 180.34 0zm364.07 -230.3c27.09,-26.53 58.98,-46.85 95.67,-60.96 36.69,-14.11 76.2,-21.17 118.53,-21.17 42.34,0 81.99,6.92 118.96,20.75 36.97,13.83 69.01,34.29 96.1,61.38 14.67,14.68 27.8,29.49 39.37,44.45 11.57,14.96 21.31,30.9 29.21,47.84 7.9,16.93 13.97,35.28 18.2,55.03 4.24,19.76 6.35,41.77 6.35,66.04l0 18.63c0,47.98 -8.04,88.48 -24.13,121.5 -16.08,33.02 -39.09,63.64 -69,91.86 -27.09,26.53 -59.13,46.85 -96.1,60.96 -36.97,14.11 -76.62,21.17 -118.96,21.17 -42.33,0 -81.84,-6.92 -118.53,-20.75 -36.69,-13.83 -68.58,-34.29 -95.67,-61.38 -14.68,-14.68 -27.8,-29.49 -39.37,-44.45 -11.57,-14.96 -21.31,-30.9 -29.21,-47.84 -7.91,-16.93 -13.97,-35.28 -18.21,-55.03 -4.23,-19.76 -6.35,-41.77 -6.35,-66.04l0 -18.63c0,-24.27 2.12,-46.28 6.35,-66.04 4.24,-19.75 10.3,-38.1 18.21,-55.03 7.9,-16.94 17.64,-33.02 29.21,-48.26 11.57,-15.24 24.69,-29.92 39.37,-44.03zm-9.32 231.99c0,18.63 1.41,38.52 4.24,59.69 2.82,21.17 6.91,41.91 12.27,62.23 5.37,20.32 12.14,39.09 20.32,56.3 8.19,17.22 17.64,31.19 28.37,41.91 40.64,39.51 93.41,59.27 158.32,59.27 32.18,0 61.81,-4.94 88.91,-14.82 27.09,-9.87 50.51,-24.69 70.27,-44.45 10.72,-10.72 20.18,-24.69 28.36,-41.91 8.19,-17.21 14.96,-35.98 20.32,-56.3 5.36,-20.32 9.46,-41.06 12.28,-62.23 2.82,-21.17 4.23,-41.06 4.23,-59.69l0 -18.63c0,-18.62 -1.41,-38.66 -4.23,-60.11 -2.82,-21.45 -6.92,-42.33 -12.28,-62.66 -5.36,-20.32 -12.13,-39.08 -20.32,-56.3 -8.18,-17.21 -17.64,-30.9 -28.36,-41.06 -40.64,-39.51 -93.7,-59.27 -159.18,-59.27 -64.91,0 -117.68,19.76 -158.32,59.27 -10.73,10.72 -20.18,24.69 -28.37,41.91 -8.18,17.21 -14.95,35.98 -20.32,56.3 -5.36,20.32 -9.45,41.07 -12.27,62.23 -2.83,21.17 -4.24,41.07 -4.24,59.69l0 18.63zm696.82 -305.65l0 576.58 309.88 0 0 16.09 -390.32 0 0 -592.67 80.44 0zm394.54 592.67l0 -592.67 80.44 0 0 592.67 -80.44 0zm165.1 0l0 -592.67 88.06 0 395.39 467.36 0 -467.36 15.24 0 0 592.67 -15.24 0 -467.36 -553.72 0 553.72 -16.09 0zm846.68 -592.67l77.89 0 263.32 592.67 -87.21 0c-85.37,-191.88 -163.02,-366.19 -249.77,-562.19 -84.28,189.41 -165.89,373.68 -249.77,562.19l-17.78 0 263.32 -592.67zm943.19 0l77.89 0 263.32 592.67 -87.21 0c-85.15,-191.38 -163.42,-367.09 -249.77,-562.19 -87.9,197.54 -165.1,371.93 -249.77,562.19l-17.78 0 263.32 -592.67zm506.31 0l0 576.58 309.88 0 0 16.09 -390.32 0 0 -592.67 80.44 0zm267.54 0l87.21 0 249.77 562.19 249.77 -562.19 17.78 0 -263.32 592.67 -77.89 0 -263.32 -592.67zm689.19 0l364.92 0 0 16.09 -284.48 0 0 253.15 173.56 0 0 16.09 -173.56 0 0 291.25 309.88 0 0 16.09 -390.32 0 0 -592.67zm496.15 443.66c16.94,25.4 35.56,47.69 55.88,66.88 16.94,16.94 36.83,32.46 59.69,46.57 22.86,14.11 47.56,21.17 74.09,21.17l18.62 0c22.58,0 43.18,-2.83 61.81,-8.47 18.63,-5.64 34.57,-13.69 47.84,-24.13 13.26,-10.44 23.56,-23.28 30.9,-38.52 7.34,-15.24 11.01,-32.18 11.01,-50.8 0,-15.24 -4.38,-29.21 -13.12,-41.91 -8.75,-12.7 -20.89,-24.56 -36.41,-35.56 -15.52,-11.01 -33.87,-21.03 -55.04,-30.06 -21.16,-9.03 -44.16,-17.78 -69,-26.25 -24.27,-7.9 -48.96,-16.51 -74.08,-25.82 -25.12,-9.31 -47.7,-20.6 -67.74,-33.87 -20.03,-13.26 -36.4,-29.07 -49.1,-47.41 -12.7,-18.35 -19.05,-40.5 -19.05,-66.47 0,-27.09 6.77,-50.37 20.32,-69.85 13.54,-19.47 30.9,-35.7 52.07,-48.68 21.16,-12.98 44.31,-22.58 69.42,-28.79 25.12,-6.2 48.97,-9.31 71.55,-9.31l18.62 0c35.56,0 68.02,4.09 97.37,12.28 29.35,8.18 57.58,21.31 84.67,39.37l33.02 22.01 -44.03 66.89c-13.54,-22.58 -28.78,-42.9 -45.72,-60.96 -14.67,-15.24 -32.6,-29.21 -53.76,-41.91 -21.17,-12.7 -45.02,-19.05 -71.55,-19.05l-18.62 0c-26.53,0 -49.25,3.1 -68.16,9.31 -18.91,6.21 -34.29,14.54 -46.14,24.98 -11.86,10.44 -20.6,22.72 -26.25,36.83 -5.64,14.11 -8.47,29.07 -8.47,44.87 0,17.5 4.52,32.03 13.55,43.61 9.03,11.57 21.31,21.73 36.83,30.48 15.52,8.74 33.59,16.51 54.19,23.28 20.6,6.77 42.75,14.11 66.46,22.01 24.84,7.9 49.53,16.23 74.08,24.98 24.56,8.75 46.71,19.61 66.47,32.6 52.49,32.73 78.74,75.35 78.74,127.84 0,30.48 -6.63,56.45 -19.9,77.9 -13.26,21.45 -30.48,38.94 -51.64,52.49 -21.17,13.55 -45.02,23.28 -71.55,29.21 -26.53,5.93 -53.06,8.89 -79.59,8.89l-18.62 0c-82.98,0 -152.69,-23.14 -209.13,-69.43l-31.33 -25.4 50.8 -61.8zm591.4 58.42c13.69,0 25.4,4.94 35.14,14.81 9.59,10.02 14.39,21.88 14.39,35.56 0,14.4 -4.8,26.39 -14.39,36.41 -9.74,9.88 -21.45,14.82 -35.56,14.82 -13.69,0 -25.54,-4.94 -35.28,-14.82 -9.74,-10.02 -14.68,-22.01 -14.68,-35.98 0,-14.11 4.94,-25.97 14.68,-35.99 9.74,-9.87 21.59,-14.81 35.7,-14.81z"/>
 </g>
</svg>
