<?xml version="1.0" encoding="UTF-8"?>
<!DOCTYPE svg PUBLIC "-//W3C//DTD SVG 1.1//EN" "http://www.w3.org/Graphics/SVG/1.1/DTD/svg11.dtd">
<!-- Creator: CorelDRAW 2021 (64-Bit) -->
<svg xmlns="http://www.w3.org/2000/svg" xml:space="preserve" width="162.56mm" height="91.44mm" version="1.1" style="shape-rendering:geometricPrecision; text-rendering:geometricPrecision; image-rendering:optimizeQuality; fill-rule:evenodd; clip-rule:evenodd"
viewBox="0 0 16256 9144"
 xmlns:xlink="http://www.w3.org/1999/xlink"
 xmlns:xodm="http://www.corel.com/coreldraw/odm/2003">
 <defs>
  <style type="text/css">
   <![CDATA[
    .fil0 {fill:white;fill-rule:nonzero}
   ]]>
  </style>
 </defs>
 <g id="Layer_x0020_1">
  <metadata id="CorelCorpID_0Corel-Layer"/>
  <g id="_2788553529648">
   <path class="fil0" d="M7276.98 4917.02l243.36 0 822.72 1851.75 -272.48 0c-266.04,-597.95 -510.59,-1146.94 -780.39,-1756.52 -274.63,617.2 -515.84,1162.07 -780.39,1756.52l-55.55 0 822.73 -1851.75zm1581.93 0l0 1801.48 968.2 0 0 50.27 -1219.53 0 0 -1851.75 251.33 0zm835.91 0l272.48 0 780.39 1756.52 780.39 -1756.52 55.55 0 -822.73 1851.75 -243.36 0 -822.72 -1851.75zm2153.32 0l1140.17 0 0 50.27 -888.84 0 0 790.95 542.28 0 0 50.27 -542.28 0 0 909.99 968.2 0 0 50.27 -1219.53 0 0 -1851.75zm1550.19 1386.18c52.93,79.36 111.1,149.01 174.59,208.96 52.93,52.93 115.07,101.42 186.5,145.51 71.42,44.09 148.6,66.14 231.49,66.14l58.18 0c70.54,0 134.91,-8.84 193.12,-26.46 58.2,-17.62 108.01,-42.77 149.47,-75.39 41.43,-32.62 73.61,-72.74 96.54,-120.36 22.94,-47.61 34.4,-100.54 34.4,-158.72 0,-47.61 -13.68,-91.26 -40.99,-130.94 -27.34,-39.68 -65.27,-76.74 -113.76,-111.11 -48.49,-34.4 -105.82,-65.7 -171.97,-93.92 -66.11,-28.21 -137.97,-55.55 -215.58,-82.01 -75.83,-24.69 -152.98,-51.59 -231.46,-80.68 -78.49,-29.08 -149.04,-64.36 -211.65,-105.82 -62.58,-41.43 -113.73,-90.83 -153.41,-148.13 -39.68,-57.33 -59.52,-126.54 -59.52,-207.68 0,-84.64 21.15,-157.38 63.49,-218.24 42.3,-60.83 96.54,-111.54 162.69,-152.1 66.11,-40.55 138.44,-70.55 216.9,-89.95 78.48,-19.37 153,-29.09 223.55,-29.09l58.18 0c111.1,0 212.52,12.78 304.22,38.37 91.7,25.56 179.91,66.58 264.55,123.01l103.17 68.77 -137.57 208.99c-42.31,-70.55 -89.92,-134.04 -142.85,-190.47 -45.84,-47.61 -101.86,-91.26 -167.97,-130.94 -66.15,-39.68 -140.66,-59.52 -223.55,-59.52l-58.18 0c-82.89,0 -153.88,9.68 -212.96,29.09 -59.09,19.4 -107.14,45.43 -144.16,78.04 -37.06,32.62 -64.37,70.99 -82.02,115.08 -17.62,44.08 -26.46,90.82 -26.46,140.19 0,54.68 14.12,100.08 42.33,136.26 28.22,36.15 66.58,67.89 115.07,95.23 48.5,27.31 104.95,51.58 169.32,72.74 64.36,21.15 133.57,44.08 207.65,68.77 77.61,24.68 154.75,50.7 231.45,78.04 76.74,27.34 145.95,61.27 207.69,101.86 164,102.26 246.01,235.43 246.01,399.43 0,95.23 -20.71,176.37 -62.17,243.39 -41.43,67.02 -95.24,121.67 -161.35,164 -66.14,42.34 -140.66,72.74 -223.55,91.27 -82.89,18.52 -165.78,27.77 -248.67,27.77l-58.18 0c-259.27,0 -477.07,-72.3 -653.41,-216.93l-97.89 -79.36 158.72 -193.09zm1847.79 182.53c42.77,0 79.36,15.44 109.79,46.27 29.96,31.31 44.96,68.37 44.96,111.11 0,44.99 -15,82.45 -44.96,113.76 -30.43,30.87 -67.02,46.3 -111.11,46.3 -42.77,0 -79.79,-15.43 -110.23,-46.3 -30.43,-31.31 -45.86,-68.77 -45.86,-112.42 0,-44.08 15.43,-81.14 45.86,-112.45 30.44,-30.83 67.46,-46.27 111.55,-46.27z"/>
   <path class="fil0" d="M855.13 3264.08c0,-75.83 6.62,-144.6 19.84,-206.34 13.25,-61.71 32.18,-119.48 56.9,-173.28 24.68,-53.77 55.11,-104.04 91.26,-150.78 36.15,-46.71 77.14,-92.14 123.01,-136.23 84.64,-82.89 184.28,-146.38 298.91,-190.46 114.64,-44.09 238.09,-66.15 370.34,-66.15 67.02,0 137.13,4.88 210.31,14.56 73.2,9.72 145.07,24.25 215.61,43.65 70.55,19.4 136.67,44.09 198.41,74.08 61.7,29.96 113.76,65.24 156.06,105.79l-137.54 209c-45.86,-77.58 -95.7,-141.54 -149.47,-191.78 -53.8,-50.27 -108.92,-90.83 -165.34,-121.7 -56.43,-30.87 -112.42,-52.46 -167.97,-64.8 -55.56,-12.34 -108.92,-18.53 -160.07,-18.53 -202.8,0 -367.68,61.74 -494.66,185.19 -33.52,33.49 -63.05,77.14 -88.64,130.94 -25.56,53.78 -46.71,112.42 -63.49,175.91 -16.74,63.49 -29.52,128.32 -38.33,194.43 -8.84,66.15 -13.25,128.32 -13.25,186.5l0 58.21c0,58.21 4.41,120.35 13.25,186.5 8.81,66.14 21.59,130.94 38.33,194.43 16.78,63.49 37.93,122.13 63.49,175.9 25.59,53.81 55.12,97.45 88.64,130.95 126.98,123.45 291.86,185.18 494.66,185.18 51.15,0 106.7,-9.68 166.66,-29.08 59.99,-19.41 120.82,-47.62 182.56,-84.68 61.71,-37.02 122.1,-83.33 181.19,-138.88 59.08,-55.55 113.32,-118.6 162.68,-189.12l158.73 193.09c-42.31,42.34 -90.39,81.58 -144.17,117.73 -53.8,36.15 -115.51,67.46 -185.18,93.92 -69.64,26.43 -147.69,47.62 -234.11,63.49 -86.43,15.87 -182.53,23.81 -288.36,23.81 -132.25,0 -255.7,-21.63 -370.34,-64.84 -114.63,-43.21 -214.27,-107.13 -298.91,-191.77 -45.87,-45.87 -86.86,-92.14 -123.01,-138.88 -36.15,-46.75 -66.58,-96.55 -91.26,-149.48 -24.72,-52.89 -43.65,-110.23 -56.9,-171.93 -13.22,-61.74 -19.84,-130.51 -19.84,-206.34l0 -58.21zm2833.2 -896.77l243.36 0 822.73 1851.75 -272.48 0c-274.8,-617.64 -495.04,-1111.76 -780.39,-1756.52 -269.48,605.67 -517.88,1166.57 -780.39,1756.52l-55.55 0 822.72 -1851.75zm2256.5 0c68.77,0 133.57,11.46 194.43,34.4 60.83,22.93 113.76,56.42 158.72,100.51 44.96,44.08 80.67,96.54 107.14,157.41 26.46,60.83 39.68,130.07 39.68,207.65 0,67.02 -11.03,128.32 -33.06,183.87 -22.06,55.55 -51.58,104.48 -88.64,146.82 -37.02,42.3 -81.11,77.14 -132.26,104.48 -51.14,27.34 -105.82,46.3 -164.03,56.86 30,10.59 57.77,27.78 83.33,51.59 25.59,23.8 48.96,56.89 70.11,99.2l328.04 708.96 -367.72 0 -298.91 -788.32c-10.59,-24.69 -26.9,-41 -48.96,-48.93 -22.03,-7.94 -48.93,-12.78 -80.67,-14.56l-441.77 0 0 851.81 -251.33 0 0 -1851.75 925.9 0zm-111.11 949.7c63.49,0 118.17,-14.56 164,-43.65 45.87,-29.12 83.33,-65.71 112.42,-109.79 29.12,-44.09 50.71,-92.58 64.83,-145.51 14.09,-52.89 21.15,-103.17 21.15,-150.78 0,-42.34 -4.84,-89.49 -14.56,-141.54 -9.68,-52.02 -27.77,-100.95 -54.2,-146.82 -26.47,-45.83 -63.05,-84.2 -109.8,-115.07 -46.74,-30.84 -107.13,-46.27 -181.21,-46.27l-566.09 0 0 899.43 563.46 0zm1137.51 -719.56c84.64,-82.89 184.28,-146.38 298.92,-190.46 114.63,-44.09 238.08,-66.15 370.34,-66.15 132.28,0 256.17,21.62 371.68,64.83 115.51,43.21 215.62,107.14 300.26,191.78 45.83,45.87 86.86,92.14 123.01,138.88 36.14,46.74 66.58,96.55 91.26,149.48 24.68,52.89 43.65,110.22 56.86,171.93 13.25,61.74 19.84,130.51 19.84,206.34l0 58.21c0,149.91 -25.12,276.45 -75.39,379.62 -50.24,103.16 -122.13,198.84 -215.58,287.01 -84.64,82.89 -184.75,146.38 -300.26,190.46 -115.51,44.09 -239.4,66.15 -371.68,66.15 -132.26,0 -255.71,-21.63 -370.34,-64.84 -114.64,-43.21 -214.28,-107.13 -298.92,-191.77 -45.86,-45.87 -86.86,-92.14 -123.01,-138.88 -36.14,-46.75 -66.58,-96.55 -91.26,-149.48 -24.71,-52.89 -43.65,-110.23 -56.9,-171.93 -13.21,-61.74 -19.84,-130.51 -19.84,-206.34l0 -58.21c0,-75.83 6.63,-144.6 19.84,-206.34 13.25,-61.71 32.19,-119.04 56.9,-171.93 24.68,-52.93 55.12,-103.17 91.26,-150.79 36.15,-47.62 77.15,-93.48 123.01,-137.57zm-29.12 724.84c0,58.21 4.41,120.35 13.25,186.5 8.81,66.14 21.59,130.94 38.34,194.43 16.78,63.49 37.93,122.13 63.49,175.9 25.59,53.81 55.11,97.45 88.64,130.95 126.97,123.45 291.85,185.18 494.66,185.18 100.54,0 193.12,-15.43 277.79,-46.3 84.64,-30.84 157.81,-77.14 219.55,-138.88 33.5,-33.5 63.05,-77.14 88.61,-130.95 25.59,-53.77 46.74,-112.41 63.49,-175.9 16.75,-63.49 29.56,-128.29 38.37,-194.43 8.81,-66.15 13.21,-128.29 13.21,-186.5l0 -58.21c0,-58.18 -4.4,-120.79 -13.21,-187.81 -8.81,-67.02 -21.62,-132.26 -38.37,-195.78 -16.75,-63.48 -37.9,-122.1 -63.49,-175.9 -25.56,-53.77 -55.11,-96.55 -88.61,-128.29 -126.97,-123.45 -292.76,-185.19 -497.34,-185.19 -202.81,0 -367.69,61.74 -494.66,185.19 -33.53,33.49 -63.05,77.14 -88.64,130.94 -25.56,53.78 -46.71,112.42 -63.49,175.91 -16.75,63.49 -29.53,128.32 -38.34,194.43 -8.84,66.15 -13.25,128.32 -13.25,186.5l0 58.21zm2177.17 -954.98l0 1801.48 968.2 0 0 50.27 -1219.53 0 0 -1851.75 251.33 0zm1232.71 1851.75l0 -1851.75 251.33 0 0 1851.75 -251.33 0zm515.85 0l0 -1851.75 275.13 0 1235.37 1460.23 0 -1460.23 47.62 0 0 1851.75 -47.62 0 -1460.23 -1730.06 0 1730.06 -50.27 0zm2645.39 -1851.75l243.36 0 822.72 1851.75 -272.48 0c-266.73,-599.51 -509.34,-1144.13 -780.39,-1756.52 -263.32,591.8 -518.31,1167.54 -780.38,1756.52l-55.56 0 822.73 -1851.75z"/>
  </g>
 </g>
</svg>
